<svg xmlns="http://www.w3.org/2000/svg" width="16" height="16" fill="currentColor" class="bi bi-telephone" viewBox="0 0 16 16">
  <path d="M3.654 1.328a.678.678 0 0 1 .94-.126L7.292 2.84c.329.245.443.674.26 1.02L6.03 6.156a.678.678 0 0 0 .169.832l3.013 2.51a.678.678 0 0 0 .832.169l2.294-1.521c.346-.183.774-.07 1.02.26l1.638 2.698c.229.375.151.86-.183 1.174a12.253 12.253 0 0 1-9.95 2.777 12.253 12.253 0 0 1-8.18-5.106c-1.792-2.465-2.206-5.527-1.172-8.18a1.12 1.12 0 0 1 1.173-.183l2.698 1.638z"/>
</svg>
